<svg xmlns="http://www.w3.org/2000/svg" viewBox="0 0 512 512">
  <defs>
    <linearGradient id="bg" x1="0%" y1="0%" x2="100%" y2="100%">
      <stop offset="0%" stop-color="#1e3a8a"/>
      <stop offset="100%" stop-color="#6d28d9"/>
    </linearGradient>
  </defs>
  <rect width="512" height="512" rx="96" fill="url(#bg)"/>
  <!-- Castle base -->
  <rect x="156" y="290" width="200" height="150" fill="white" opacity="0.92"/>
  <!-- Side towers -->
  <rect x="148" y="225" width="56" height="90" fill="white" opacity="0.92"/>
  <rect x="308" y="225" width="56" height="90" fill="white" opacity="0.92"/>
  <!-- Center tower -->
  <rect x="210" y="248" width="92" height="70" fill="white" opacity="0.92"/>
  <!-- Tower peaks -->
  <polygon points="148,225 176,168 204,225" fill="white" opacity="0.92"/>
  <polygon points="308,225 336,168 364,225" fill="white" opacity="0.92"/>
  <polygon points="210,248 256,182 302,248" fill="white" opacity="0.92"/>
  <!-- Door -->
  <rect x="228" y="366" width="56" height="74" rx="28" fill="#312e81" opacity="0.75"/>
  <!-- Windows -->
  <circle cx="176" cy="316" r="14" fill="#312e81" opacity="0.55"/>
  <circle cx="336" cy="316" r="14" fill="#312e81" opacity="0.55"/>
  <circle cx="256" cy="290" r="12" fill="#312e81" opacity="0.55"/>
  <!-- Stars -->
  <circle cx="96" cy="96" r="7" fill="white" opacity="0.65"/>
  <circle cx="420" cy="110" r="5" fill="white" opacity="0.5"/>
  <circle cx="440" cy="72" r="4" fill="white" opacity="0.7"/>
  <circle cx="76" cy="150" r="4" fill="white" opacity="0.5"/>
  <circle cx="460" cy="160" r="3" fill="white" opacity="0.4"/>
</svg>
